<?xml version="1.0" encoding="utf-8"?>
<!-- Generator: Adobe Illustrator 24.0.2, SVG Export Plug-In . SVG Version: 6.00 Build 0)  -->
<svg version="1.1" id="Layer_1" xmlns="http://www.w3.org/2000/svg" xmlns:xlink="http://www.w3.org/1999/xlink" x="0px" y="0px"
	 viewBox="0 0 120 47" style="enable-background:new 0 0 120 47;" xml:space="preserve">
<style type="text/css">
	.st0{fill:#FFFFFF;}
</style>
<path class="st0" d="M0,47l20-36.4C23.3,4.7,31.1,0,37.9,0H54L28.2,47H0z"/>
<path d="M47.8,3.7L26,43.4H6.2l17-31c2.6-4.8,9.2-8.7,14.7-8.7H47.8z"/>
<path class="st0" d="M106.4,27.2c-7.5,0-13.6-6.1-13.6-13.6C92.8,6.1,98.9,0,106.4,0c7.5,0,13.6,6.1,13.6,13.6
	C120,21.1,113.9,27.2,106.4,27.2z"/>
<path d="M96.5,13.6c0-5.5,4.4-9.9,9.9-9.9s9.9,4.4,9.9,9.9c0,5.5-4.4,9.9-9.9,9.9S96.5,19.1,96.5,13.6z"/>
<polygon class="st0" points="23.6,47 49.4,0 77.6,0 51.8,47 "/>
<path d="M51.5,3.7h19.8L49.6,43.4H29.8L51.5,3.7z"/>
<path class="st0" d="M47,47L72.8,0H101L81,36.4C77.8,42.4,69.9,47,63.1,47H47z"/>
<path d="M75,3.7h19.8l-17,31c-2.6,4.8-9.2,8.7-14.7,8.7h-9.9L75,3.7z"/>
</svg>
